<svg width="69" height="69" viewBox="0 0 69 69" fill="none" xmlns="http://www.w3.org/2000/svg">
<circle cx="34.5" cy="34.5" r="34.5" fill="#DE8181"/>
<path d="M40.864 47L39.2 41.56H30.88L29.216 47H24L32.064 24.056H37.984L46.08 47H40.864ZM36.384 32.184C36.2773 31.8213 36.1387 31.3627 35.968 30.808C35.7973 30.2533 35.6267 29.688 35.456 29.112C35.2853 28.536 35.1467 28.0347 35.04 27.608C34.9333 28.0347 34.784 28.568 34.592 29.208C34.4213 29.8267 34.2507 30.424 34.08 31C33.9307 31.5547 33.8133 31.9493 33.728 32.184L32.096 37.496H38.048L36.384 32.184Z" fill="white"/>
</svg>
