<svg width="88" height="16" viewBox="0 0 88 16" fill="none" xmlns="http://www.w3.org/2000/svg">
<path d="M7.10326 1.81698C7.47008 1.07374 8.52992 1.07374 8.89674 1.81699L10.1185 4.29249C10.2641 4.58763 10.5457 4.7922 10.8714 4.83953L13.6033 5.2365C14.4235 5.35568 14.751 6.36365 14.1575 6.94219L12.1807 8.8691C11.945 9.09884 11.8375 9.42984 11.8931 9.75423L12.3598 12.4751C12.4999 13.292 11.6424 13.9149 10.9088 13.5293L8.46534 12.2446C8.17402 12.0915 7.82598 12.0915 7.53466 12.2446L5.09119 13.5293C4.35756 13.9149 3.50013 13.292 3.64024 12.4751L4.1069 9.75423C4.16254 9.42984 4.05499 9.09884 3.81931 8.8691L1.8425 6.94219C1.24898 6.36365 1.57649 5.35568 2.39671 5.2365L5.12859 4.83953C5.4543 4.7922 5.73587 4.58763 5.88153 4.29249L7.10326 1.81698Z" fill="#FFD02D"/>
<path d="M25.1033 1.81698C25.4701 1.07374 26.5299 1.07374 26.8967 1.81699L28.1185 4.29249C28.2641 4.58763 28.5457 4.7922 28.8714 4.83953L31.6033 5.2365C32.4235 5.35568 32.751 6.36365 32.1575 6.94219L30.1807 8.8691C29.945 9.09884 29.8375 9.42984 29.8931 9.75423L30.3598 12.4751C30.4999 13.292 29.6424 13.9149 28.9088 13.5293L26.4653 12.2446C26.174 12.0915 25.826 12.0915 25.5347 12.2446L23.0912 13.5293C22.3576 13.9149 21.5001 13.292 21.6402 12.4751L22.1069 9.75423C22.1625 9.42984 22.055 9.09884 21.8193 8.8691L19.8425 6.94219C19.249 6.36365 19.5765 5.35568 20.3967 5.2365L23.1286 4.83953C23.4543 4.7922 23.7359 4.58763 23.8815 4.29249L25.1033 1.81698Z" fill="#FFD02D"/>
<path d="M43.1033 1.81698C43.4701 1.07374 44.5299 1.07374 44.8967 1.81699L46.1185 4.29249C46.2641 4.58763 46.5457 4.7922 46.8714 4.83953L49.6033 5.2365C50.4235 5.35568 50.751 6.36365 50.1575 6.94219L48.1807 8.8691C47.945 9.09884 47.8375 9.42984 47.8931 9.75423L48.3598 12.4751C48.4999 13.292 47.6424 13.9149 46.9088 13.5293L44.4653 12.2446C44.174 12.0915 43.826 12.0915 43.5347 12.2446L41.0912 13.5293C40.3576 13.9149 39.5001 13.292 39.6402 12.4751L40.1069 9.75423C40.1625 9.42984 40.055 9.09884 39.8193 8.8691L37.8425 6.94219C37.249 6.36365 37.5765 5.35568 38.3967 5.2365L41.1286 4.83953C41.4543 4.7922 41.7359 4.58763 41.8815 4.29249L43.1033 1.81698Z" fill="#FFD02D"/>
<path d="M61.1033 1.81698C61.4701 1.07374 62.5299 1.07374 62.8967 1.81699L64.1185 4.29249C64.2641 4.58763 64.5457 4.7922 64.8714 4.83953L67.6033 5.2365C68.4235 5.35568 68.751 6.36365 68.1575 6.94219L66.1807 8.8691C65.945 9.09884 65.8375 9.42984 65.8931 9.75423L66.3598 12.4751C66.4999 13.292 65.6424 13.9149 64.9088 13.5293L62.4653 12.2446C62.174 12.0915 61.826 12.0915 61.5347 12.2446L59.0912 13.5293C58.3576 13.9149 57.5001 13.292 57.6402 12.4751L58.1069 9.75423C58.1625 9.42984 58.055 9.09884 57.8193 8.8691L55.8425 6.94219C55.249 6.36365 55.5765 5.35568 56.3967 5.2365L59.1286 4.83953C59.4543 4.7922 59.7359 4.58763 59.8815 4.29249L61.1033 1.81698Z" fill="#FFD02D"/>
<path d="M79.1033 1.81698C79.4701 1.07374 80.5299 1.07374 80.8967 1.81699L82.1185 4.29249C82.2641 4.58763 82.5457 4.7922 82.8714 4.83953L85.6033 5.2365C86.4235 5.35568 86.751 6.36365 86.1575 6.94219L84.1807 8.8691C83.945 9.09884 83.8375 9.42984 83.8931 9.75423L84.3598 12.4751C84.4999 13.292 83.6424 13.9149 82.9088 13.5293L80.4653 12.2446C80.174 12.0915 79.826 12.0915 79.5347 12.2446L77.0912 13.5293C76.3576 13.9149 75.5001 13.292 75.6402 12.4751L76.1069 9.75423C76.1625 9.42984 76.055 9.09884 75.8193 8.8691L73.8425 6.94219C73.249 6.36365 73.5765 5.35568 74.3967 5.2365L77.1286 4.83953C77.4543 4.7922 77.7359 4.58763 77.8815 4.29249L79.1033 1.81698Z" fill="#FFD02D"/>
<mask id="mask0_4_3640" style="mask-type:alpha" maskUnits="userSpaceOnUse" x="73" y="1" width="14" height="13">
<path d="M79.1033 1.81698C79.4701 1.07374 80.5299 1.07374 80.8967 1.81699L82.1185 4.29249C82.2641 4.58763 82.5457 4.7922 82.8714 4.83953L85.6033 5.2365C86.4235 5.35568 86.751 6.36365 86.1575 6.94219L84.1807 8.8691C83.945 9.09884 83.8375 9.42984 83.8931 9.75423L84.3598 12.4751C84.4999 13.292 83.6424 13.9149 82.9088 13.5293L80.4653 12.2446C80.174 12.0915 79.826 12.0915 79.5347 12.2446L77.0912 13.5293C76.3576 13.9149 75.5001 13.292 75.6402 12.4751L76.1069 9.75423C76.1625 9.42984 76.055 9.09884 75.8193 8.8691L73.8425 6.94219C73.249 6.36365 73.5765 5.35568 74.3967 5.2365L77.1286 4.83953C77.4543 4.7922 77.7359 4.58763 77.8815 4.29249L79.1033 1.81698Z" fill="#FFD02D"/>
</mask>
<g mask="url(#mask0_4_3640)">
<rect x="80" y="-7" width="8" height="26" fill="#E9E5E5"/>
</g>
</svg>
