<svg width="121" height="41" viewBox="0 0 121 41" fill="none" xmlns="http://www.w3.org/2000/svg">
<path d="M51.0294 6.46231C52.7737 6.46231 54.0441 6.84151 54.8404 7.59993C55.6494 8.3457 56.0539 9.37588 56.0539 10.6905C56.0539 11.2846 55.9654 11.8534 55.7884 12.3969C55.6115 12.9278 55.3144 13.4081 54.8973 13.8379C54.4928 14.255 53.9556 14.5837 53.2857 14.8238C52.6157 15.064 51.7878 15.1841 50.8019 15.1841H49.5694V20H46.7064V6.46231H51.0294ZM50.8777 8.81339H49.5694V12.833H50.5175C51.061 12.833 51.5287 12.7635 51.9205 12.6244C52.3124 12.4854 52.6157 12.2642 52.8306 11.9608C53.0455 11.6574 53.153 11.2656 53.153 10.7853C53.153 10.1153 52.9697 9.62237 52.6031 9.30636C52.2365 8.97771 51.6614 8.81339 50.8777 8.81339ZM67.3529 20H59.5602V6.46231H67.3529V8.81339H62.4232V11.7902H67.0116V14.1413H62.4232V17.63H67.3529V20ZM76.8629 8.66171C76.3193 8.66171 75.8327 8.76915 75.4029 8.98403C74.9858 9.19892 74.6319 9.50861 74.3411 9.91309C74.0504 10.3049 73.8292 10.7853 73.6775 11.3541C73.5385 11.9229 73.469 12.5612 73.469 13.2691C73.469 14.2297 73.5827 15.0513 73.8103 15.7339C74.0504 16.4039 74.4233 16.9158 74.9289 17.2697C75.4345 17.6236 76.0792 17.8006 76.8629 17.8006C77.419 17.8006 77.9689 17.7374 78.5124 17.611C79.0686 17.4846 79.669 17.3076 80.3137 17.0801V19.4881C79.7196 19.7282 79.1318 19.9052 78.5503 20.019C77.9689 20.1327 77.3179 20.1896 76.5974 20.1896C75.207 20.1896 74.0567 19.9052 73.1466 19.3364C72.2492 18.7549 71.5856 17.946 71.1558 16.9095C70.726 15.8603 70.5112 14.6405 70.5112 13.2501C70.5112 12.2263 70.6502 11.2909 70.9283 10.444C71.2064 9.58445 71.6109 8.84499 72.1417 8.22562C72.6853 7.60625 73.3489 7.12592 74.1326 6.78463C74.9289 6.44335 75.839 6.2727 76.8629 6.2727C77.5328 6.2727 78.2027 6.36119 78.8727 6.53815C79.5552 6.70247 80.2062 6.93 80.8256 7.22072L79.8965 9.55285C79.3909 9.31268 78.879 9.10412 78.3607 8.92715C77.8551 8.75019 77.3558 8.66171 76.8629 8.66171ZM90.8124 16.0373C90.4332 16.8968 90.0287 17.6426 89.5989 18.2746C89.1818 18.894 88.6446 19.368 87.9873 19.6966C87.33 20.0253 86.4704 20.1896 85.4087 20.1896C85.08 20.1896 84.7198 20.1643 84.3279 20.1138C83.9361 20.0632 83.5758 19.9937 83.2472 19.9052V17.4404C83.5505 17.5668 83.8855 17.6552 84.2521 17.7058C84.6186 17.7564 84.9599 17.7816 85.2759 17.7816C85.6931 17.7816 86.028 17.7121 86.2808 17.5731C86.5463 17.434 86.7548 17.2444 86.9065 17.0043C87.0708 16.7515 87.2036 16.4797 87.3047 16.189L82.6215 6.46231H85.6551L88.1769 12.3211C88.2401 12.4475 88.3159 12.6118 88.4044 12.814C88.4929 13.0163 88.5814 13.2248 88.6698 13.4397C88.7583 13.6546 88.8278 13.8442 88.8784 14.0085H88.9732C89.0238 13.8568 89.087 13.6736 89.1628 13.4587C89.2513 13.2312 89.3398 13.0036 89.4283 12.7761C89.5294 12.5359 89.6179 12.3274 89.6937 12.1504L92.0448 6.46231H95.0026L90.8124 16.0373ZM101.982 6.46231C103.726 6.46231 104.996 6.84151 105.793 7.59993C106.602 8.3457 107.006 9.37588 107.006 10.6905C107.006 11.2846 106.918 11.8534 106.741 12.3969C106.564 12.9278 106.267 13.4081 105.85 13.8379C105.445 14.255 104.908 14.5837 104.238 14.8238C103.568 15.064 102.74 15.1841 101.754 15.1841H100.522V20H97.6587V6.46231H101.982ZM101.83 8.81339H100.522V12.833H101.47C102.013 12.833 102.481 12.7635 102.873 12.6244C103.265 12.4854 103.568 12.2642 103.783 11.9608C103.998 11.6574 104.105 11.2656 104.105 10.7853C104.105 10.1153 103.922 9.62237 103.555 9.30636C103.189 8.97771 102.614 8.81339 101.83 8.81339ZM116.257 8.66171C115.714 8.66171 115.227 8.76915 114.797 8.98403C114.38 9.19892 114.026 9.50861 113.736 9.91309C113.445 10.3049 113.224 10.7853 113.072 11.3541C112.933 11.9229 112.864 12.5612 112.864 13.2691C112.864 14.2297 112.977 15.0513 113.205 15.7339C113.445 16.4039 113.818 16.9158 114.323 17.2697C114.829 17.6236 115.474 17.8006 116.257 17.8006C116.814 17.8006 117.363 17.7374 117.907 17.611C118.463 17.4846 119.064 17.3076 119.708 17.0801V19.4881C119.114 19.7282 118.526 19.9052 117.945 20.019C117.363 20.1327 116.712 20.1896 115.992 20.1896C114.602 20.1896 113.451 19.9052 112.541 19.3364C111.644 18.7549 110.98 17.946 110.55 16.9095C110.121 15.8603 109.906 14.6405 109.906 13.2501C109.906 12.2263 110.045 11.2909 110.323 10.444C110.601 9.58445 111.005 8.84499 111.536 8.22562C112.08 7.60625 112.743 7.12592 113.527 6.78463C114.323 6.44335 115.234 6.2727 116.257 6.2727C116.927 6.2727 117.597 6.36119 118.267 6.53815C118.95 6.70247 119.601 6.93 120.22 7.22072L119.291 9.55285C118.785 9.31268 118.274 9.10412 117.755 8.92715C117.25 8.75019 116.75 8.66171 116.257 8.66171Z" fill="black"/>
<path d="M46.5541 37V25.9035H54.589V37H53.7031V26.7117H47.4555V37H46.5541ZM66.0242 37H65.1383V26.7117H61.2064C61.1546 27.2401 61.0872 27.8047 61.0044 28.4057C60.9318 29.0066 60.8541 29.6127 60.7712 30.224C60.6883 30.8353 60.6003 31.4362 60.507 32.0268C60.4241 32.607 60.3361 33.1458 60.2428 33.6431C60.1081 34.3476 59.9475 34.9641 59.7611 35.4925C59.5746 36.0209 59.3259 36.4353 59.0151 36.7358C58.7146 37.0259 58.3054 37.171 57.7873 37.171C57.6112 37.171 57.4454 37.1554 57.29 37.1243C57.1449 37.0932 57.0102 37.057 56.8859 37.0155V36.2229C56.9999 36.2747 57.1242 36.3162 57.2589 36.3473C57.3936 36.3783 57.5438 36.3939 57.7096 36.3939C58.0619 36.3939 58.3416 36.2592 58.5488 35.9898C58.7561 35.7204 58.9218 35.363 59.0462 34.9175C59.1808 34.4616 59.3 33.9591 59.4036 33.41C59.4969 32.8919 59.5901 32.3324 59.6833 31.7315C59.7766 31.1202 59.8647 30.4882 59.9475 29.8355C60.0408 29.1724 60.1289 28.5093 60.2117 27.8462C60.305 27.1831 60.3879 26.5355 60.4604 25.9035H66.0242V37ZM83.4234 31.4362C83.4234 32.2755 83.3249 33.0473 83.1281 33.7519C82.9312 34.4461 82.6308 35.047 82.2267 35.5547C81.833 36.0623 81.3357 36.4561 80.7347 36.7358C80.1442 37.0155 79.4448 37.1554 78.6367 37.1554C77.5799 37.1554 76.6992 36.9223 75.9946 36.4561C75.3005 35.9898 74.7721 35.3423 74.4094 34.5134C74.0572 33.6742 73.8655 32.7002 73.8344 31.5916H70.8039V37H69.9025V25.9035H70.8039V30.799H73.8499C73.9018 29.7837 74.1141 28.8978 74.4871 28.1415C74.8601 27.3851 75.3937 26.7946 76.0879 26.3698C76.7821 25.945 77.6317 25.7326 78.6367 25.7326C79.6935 25.7326 80.5741 25.9709 81.2787 26.4475C81.9936 26.9241 82.5272 27.5923 82.8794 28.4523C83.2421 29.3019 83.4234 30.2965 83.4234 31.4362ZM74.7824 31.3274C74.7824 32.3221 74.9171 33.1976 75.1865 33.9539C75.4559 34.7103 75.8755 35.3008 76.4453 35.7256C77.0152 36.1504 77.7404 36.3628 78.6211 36.3628C79.5225 36.3628 80.2581 36.1556 80.828 35.7412C81.3978 35.3267 81.8174 34.7517 82.0868 34.0161C82.3562 33.2805 82.4909 32.4205 82.4909 31.4362C82.4909 30.4623 82.3562 29.6075 82.0868 28.8719C81.8278 28.1363 81.4134 27.5664 80.8435 27.1624C80.2737 26.7479 79.5381 26.5407 78.6367 26.5407C77.7663 26.5407 77.0411 26.7376 76.4609 27.1313C75.891 27.525 75.4662 28.0845 75.1865 28.8097C74.9171 29.5246 74.7824 30.3639 74.7824 31.3274ZM91.4614 26.5563C90.7775 26.5563 90.1611 26.6754 89.612 26.9137C89.0732 27.1417 88.6173 27.4732 88.2443 27.9084C87.8713 28.3331 87.5864 28.846 87.3896 29.4469C87.1927 30.0375 87.0943 30.6954 87.0943 31.4207C87.0943 32.4153 87.2497 33.2856 87.5605 34.0316C87.8713 34.7672 88.3376 35.3371 88.9592 35.7412C89.5912 36.1452 90.3735 36.3473 91.306 36.3473C91.8447 36.3473 92.342 36.3058 92.7979 36.2229C93.2538 36.14 93.6734 36.0364 94.0568 35.9121V36.6892C93.6838 36.8342 93.2642 36.9482 92.7979 37.0311C92.342 37.114 91.8085 37.1554 91.1972 37.1554C90.0886 37.1554 89.1561 36.9171 88.3997 36.4405C87.6538 35.9639 87.0891 35.2956 86.7057 34.4357C86.3327 33.5757 86.1462 32.5707 86.1462 31.4207C86.1462 30.6022 86.2654 29.8458 86.5037 29.1517C86.742 28.4575 87.0891 27.8566 87.545 27.3489C88.0008 26.8412 88.5551 26.4475 89.2079 26.1677C89.871 25.888 90.6273 25.7481 91.4769 25.7481C92.0053 25.7481 92.513 25.7999 93 25.9035C93.4973 26.0071 93.9583 26.1574 94.3831 26.3542L94.0257 27.1468C93.632 26.95 93.2175 26.8049 92.7824 26.7117C92.3576 26.6081 91.9172 26.5563 91.4614 26.5563Z" fill="black"/>
<rect x="9" y="4" width="16" height="34" fill="#FFAD32"/>
<rect y="29" width="16" height="34" transform="rotate(-90 0 29)" fill="#FF8A00"/>
</svg>
